<svg width="718" height="431" viewBox="0 0 718 431" fill="none" xmlns="http://www.w3.org/2000/svg">
<g clip-path="url(#clip0_4_313)">
<path d="M120.429 410.02C119.854 410.046 119.285 409.895 118.798 409.587C118.312 409.279 117.932 408.829 117.71 408.298C117.488 407.767 117.434 407.181 117.557 406.618C117.679 406.056 117.971 405.544 118.394 405.154L118.587 404.389C118.561 404.328 118.536 404.267 118.51 404.205C117.931 402.837 116.96 401.67 115.72 400.852C114.48 400.034 113.025 399.6 111.54 399.606C110.054 399.611 108.603 400.056 107.368 400.883C106.134 401.711 105.172 402.884 104.603 404.257C102.329 409.735 99.433 415.223 98.7199 421.015C98.4059 423.575 98.5384 426.17 99.1114 428.685C93.7692 417.032 90.9952 404.366 90.9773 391.547C90.9762 388.33 91.1549 385.115 91.5127 381.918C91.8083 379.297 92.2185 376.695 92.7432 374.112C95.6065 360.094 101.754 346.955 110.681 335.774C115.002 333.417 118.496 329.792 120.693 325.387C121.489 323.804 122.052 322.114 122.363 320.369C121.876 320.433 120.525 313.01 120.893 312.555C120.214 311.524 118.998 311.012 118.256 310.006C114.567 305.004 109.484 305.877 106.83 312.675C101.161 315.536 101.106 320.28 104.585 324.844C106.798 327.747 107.102 331.675 109.043 334.784C108.844 335.039 108.636 335.287 108.436 335.543C104.785 340.238 101.602 345.28 98.9339 350.597C99.5827 344.641 98.8083 338.616 96.6744 333.018C94.5117 327.801 90.4581 323.407 86.8884 318.896C82.6006 313.479 73.8081 315.843 73.0527 322.711C73.0453 322.777 73.0382 322.844 73.0312 322.91C73.5615 323.209 74.0805 323.527 74.5883 323.863C75.2263 324.289 75.7206 324.898 76.0066 325.61C76.2925 326.322 76.3567 327.104 76.1907 327.853C76.0248 328.602 75.6364 329.283 75.0765 329.808C74.5166 330.332 73.8113 330.676 73.053 330.793L72.9753 330.804C73.1642 332.715 73.4981 334.609 73.9741 336.47C69.3946 354.18 79.2814 360.63 93.3984 360.92C93.71 361.08 94.0137 361.239 94.3254 361.391C91.6448 368.988 89.9634 376.901 89.3235 384.931C88.9612 389.668 88.9825 394.427 89.3874 399.161L89.3634 398.994C88.3406 393.729 85.5324 388.979 81.413 385.546C75.2948 380.52 66.6509 378.669 60.0504 374.629C59.349 374.179 58.5333 373.939 57.6997 373.937C56.8661 373.935 56.0493 374.171 55.3457 374.618C54.642 375.065 54.0809 375.704 53.7284 376.459C53.3759 377.215 53.2467 378.055 53.3562 378.881C53.3651 378.94 53.3741 378.999 53.3832 379.058C54.3672 379.459 55.3252 379.92 56.2517 380.44C56.7819 380.739 57.301 381.057 57.8088 381.393C58.4467 381.819 58.9411 382.428 59.227 383.14C59.5129 383.852 59.5771 384.634 59.4111 385.383C59.2452 386.132 58.8568 386.813 58.2969 387.338C57.737 387.862 57.0317 388.206 56.2734 388.323L56.1957 388.334C56.1398 388.342 56.0919 388.35 56.036 388.358C57.7172 392.373 60.0768 396.067 63.0114 399.281C65.8749 414.741 78.1734 416.208 91.329 411.706H91.337C92.7804 417.978 94.8718 424.084 97.5774 429.924H119.87C119.95 429.676 120.022 429.42 120.094 429.173C118.031 429.302 115.959 429.179 113.925 428.805C115.579 426.776 117.233 424.73 118.887 422.701C118.924 422.663 118.959 422.623 118.991 422.581C119.83 421.542 120.677 420.511 121.516 419.473L121.517 419.471C121.561 416.287 121.195 413.11 120.429 410.02Z" fill="#F2F2F2"/>
<path d="M586.052 410.02C586.627 410.046 587.196 409.895 587.682 409.587C588.169 409.279 588.549 408.829 588.771 408.298C588.993 407.767 589.046 407.181 588.924 406.618C588.801 406.056 588.509 405.544 588.086 405.154L587.894 404.389C587.919 404.328 587.945 404.267 587.97 404.205C588.55 402.837 589.52 401.67 590.76 400.852C592.001 400.034 593.455 399.6 594.941 399.606C596.427 399.611 597.878 400.056 599.112 400.883C600.346 401.711 601.308 402.884 601.877 404.257C604.152 409.735 607.047 415.223 607.76 421.015C608.074 423.575 607.942 426.17 607.369 428.685C612.711 417.032 615.485 404.366 615.503 391.547C615.504 388.33 615.325 385.115 614.968 381.918C614.672 379.297 614.262 376.695 613.737 374.112C610.874 360.094 604.726 346.955 595.799 335.774C591.478 333.417 587.984 329.792 585.787 325.387C584.991 323.804 584.429 322.114 584.117 320.369C584.605 320.433 585.955 313.01 585.587 312.555C586.267 311.524 587.482 311.012 588.224 310.006C591.914 305.004 596.997 305.877 599.65 312.675C605.319 315.536 605.374 320.28 601.896 324.844C599.683 327.747 599.379 331.675 597.437 334.784C597.637 335.039 597.845 335.287 598.044 335.543C601.696 340.238 604.878 345.28 607.546 350.597C606.898 344.641 607.672 338.616 609.806 333.018C611.969 327.801 616.022 323.407 619.592 318.896C623.88 313.479 632.672 315.843 633.428 322.711C633.435 322.777 633.442 322.844 633.449 322.91C632.919 323.209 632.4 323.527 631.892 323.863C631.254 324.289 630.76 324.898 630.474 325.61C630.188 326.322 630.124 327.104 630.29 327.853C630.456 328.602 630.844 329.283 631.404 329.808C631.964 330.332 632.669 330.676 633.427 330.793L633.505 330.804C633.316 332.715 632.982 334.609 632.506 336.47C637.086 354.18 627.199 360.63 613.082 360.92C612.77 361.08 612.467 361.239 612.155 361.391C614.836 368.988 616.517 376.901 617.157 384.931C617.519 389.668 617.498 394.427 617.093 399.161L617.117 398.994C618.14 393.729 620.948 388.979 625.067 385.546C631.186 380.52 639.829 378.669 646.43 374.629C647.131 374.179 647.947 373.939 648.781 373.937C649.614 373.935 650.431 374.171 651.135 374.618C651.838 375.065 652.4 375.704 652.752 376.459C653.105 377.215 653.234 378.055 653.124 378.881C653.115 378.94 653.106 378.999 653.097 379.058C652.113 379.459 651.155 379.92 650.229 380.44C649.698 380.739 649.179 381.057 648.672 381.393C648.034 381.819 647.539 382.428 647.253 383.14C646.967 383.852 646.903 384.634 647.069 385.383C647.235 386.132 647.624 386.813 648.183 387.338C648.743 387.862 649.449 388.206 650.207 388.323L650.285 388.334C650.341 388.342 650.388 388.35 650.444 388.358C648.763 392.373 646.404 396.067 643.469 399.281C640.605 414.741 628.307 416.208 615.151 411.706H615.143C613.7 417.978 611.609 424.084 608.903 429.924H586.61C586.53 429.676 586.458 429.42 586.386 429.173C588.45 429.302 590.521 429.179 592.555 428.805C590.901 426.776 589.247 424.73 587.593 422.701C587.556 422.663 587.521 422.623 587.489 422.581C586.65 421.542 585.803 420.511 584.964 419.473L584.964 419.471C584.919 416.287 585.285 413.11 586.052 410.02Z" fill="#F2F2F2"/>
<path d="M146.07 429.424H182.044C188.196 408.708 182.077 359.749 190.186 339.738C205.745 301.369 225.622 260.885 262.721 242.151C278.561 234.151 295.832 231.027 313.47 231.197C337.836 231.428 362.886 237.969 385.821 246.637C395.203 250.175 404.499 254.065 413.758 258.04C448.643 273.03 483.149 289.358 520.664 293.771C568.135 299.351 623.949 278.112 636.914 232.364C646.81 197.339 628.988 160.976 610.298 129.695C591.608 98.4138 570.716 64.9445 574.129 28.7277C574.141 28.6061 574.153 28.4723 574.178 28.3508C575.462 15.3424 583.229 5.99358 594.079 0H546.84C546.216 33.7854 565.762 63.6072 583.351 93.0524C602.041 124.321 619.863 160.696 609.968 195.722C597.002 241.458 489.64 187.845 442.169 182.253C428.763 180.685 450.058 186.265 437.276 182.253C417.228 175.968 415.006 233.616 395.496 225.155C383.35 219.878 371.192 214.638 358.874 209.982C353.774 208.049 348.563 206.238 343.291 204.56C343.279 204.56 343.279 204.56 343.267 204.548C307.868 193.339 269.155 188.974 236.447 205.18C236.227 205.289 235.994 205.399 235.774 205.508C198.675 224.231 178.799 264.715 163.24 303.083C150.384 334.802 152.406 395.967 146.07 429.424Z" fill="#F2F2F2"/>
<path d="M346.212 428.364C437.462 428.364 511.435 354.391 511.435 263.14C511.435 171.89 437.462 97.9171 346.212 97.9171C254.961 97.9171 180.988 171.89 180.988 263.14C180.988 354.391 254.961 428.364 346.212 428.364Z" fill="white"/>
<path d="M345.74 429.425C182.268 433.18 178.684 355.516 178.684 263.14C178.684 170.766 253.837 95.6128 346.212 95.6128C438.587 95.6128 513.74 170.766 513.74 263.14C513.74 355.516 438.115 429.425 345.74 429.425ZM346.212 100.223C256.378 100.223 184.806 173.32 183.293 263.14C181.886 346.684 270.638 450.935 346.212 426.06C386.74 381.425 501.324 333.35 509.13 263.14C519.057 173.857 436.046 100.223 346.212 100.223Z" fill="#0E0E0E"/>
<path d="M323.672 349.131C320.819 349.131 318.005 348.467 315.453 347.191C312.902 345.914 310.682 344.061 308.971 341.779L263.895 281.677C262.446 279.746 261.391 277.549 260.791 275.21C260.191 272.872 260.058 270.438 260.399 268.048C260.74 265.658 261.548 263.359 262.778 261.281C264.008 259.204 265.635 257.389 267.567 255.94C269.498 254.492 271.696 253.438 274.035 252.839C276.373 252.241 278.807 252.108 281.197 252.451C283.587 252.793 285.886 253.602 287.963 254.833C290.04 256.064 291.854 257.692 293.301 259.624L322.791 298.941L398.532 185.331C401.237 181.278 405.441 178.465 410.22 177.51C414.998 176.556 419.96 177.538 424.014 180.241C428.069 182.944 430.884 187.146 431.841 191.924C432.798 196.702 431.818 201.665 429.117 205.721L338.966 340.947C337.335 343.392 335.142 345.411 332.57 346.834C329.998 348.258 327.122 349.043 324.184 349.126C324.013 349.128 323.843 349.131 323.672 349.131Z" fill="#F2F2F2"/>
<path d="M5.26726e-06 429.553C-0.000460809 429.709 0.0300083 429.864 0.0896507 430.009C0.149293 430.153 0.236937 430.284 0.347539 430.395C0.458142 430.506 0.58951 430.593 0.734106 430.653C0.878702 430.713 1.03367 430.743 1.19008 430.743H716.48C716.796 430.743 717.098 430.617 717.322 430.394C717.545 430.171 717.67 429.868 717.67 429.553C717.67 429.237 717.545 428.934 717.322 428.711C717.098 428.488 716.796 428.363 716.48 428.363H1.19008C1.03368 428.362 0.878714 428.393 0.734121 428.452C0.589527 428.512 0.458156 428.599 0.347555 428.71C0.236954 428.821 0.14931 428.952 0.0896659 429.097C0.0300216 429.241 -0.0004555 429.396 5.26726e-06 429.553Z" fill="#CCCCCC"/>
<path d="M451.719 417.887H442.045L437.443 380.57L451.722 380.571L451.719 417.887Z" fill="#FFB6B6"/>
<path d="M452.061 427.98L422.311 427.979V427.602C422.311 424.531 423.531 421.586 425.702 419.415C427.874 417.243 430.819 416.023 433.89 416.023L439.325 411.9L449.464 416.024L452.062 416.024L452.061 427.98Z" fill="#0E0E0E"/>
<path d="M409.661 371.639L400.725 375.345L382.178 342.638L395.368 337.169L409.661 371.639Z" fill="#FFB6B6"/>
<path d="M413.841 380.831L386.359 392.227L386.215 391.879C385.039 389.042 385.038 385.854 386.212 383.017C387.386 380.179 389.639 377.924 392.476 376.747L395.917 370.857L406.862 370.782L409.261 369.787L413.841 380.831Z" fill="#0E0E0E"/>
<path d="M462.783 205.609L394.125 212.783L384.941 243.715L353.135 294.829C353.135 294.829 375.328 332.183 373.245 331.776C371.161 331.369 375.326 341.551 378.243 340.96C381.161 340.369 384.194 347.008 382.178 348.189C380.161 349.369 388.253 359.35 388.253 359.35L400.62 348.25C403.251 328.407 400.072 310.747 388.749 296.148L424.182 257.895L430.901 255.107L436.234 397.054L455.961 397.378C461.404 369.377 464.138 344.175 459.884 326.197C459.884 326.197 460.495 272.188 462.828 272.779C465.161 273.369 463.183 266.333 463.183 266.333C463.183 266.333 461.14 260.341 463.65 257.855C466.161 255.369 464.593 240.748 464.593 240.748C468.741 226.912 467.493 215.487 462.783 205.609Z" fill="#0E0E0E"/>
<path d="M409.991 91.4583L428.972 86.5398L437.832 74.3198L458.873 76.9065L463.352 93.5747L478.332 102.27C478.332 102.27 470.052 189.841 472.022 194.65C473.991 199.458 481.053 199.061 475.022 205.26C468.991 211.458 468.192 208.962 469.592 215.71C470.991 222.458 481.192 229.6 469.592 229.529C457.991 229.458 387.991 228.458 389.991 220.458C391.991 212.458 391.96 214.49 394.975 209.474C397.991 204.458 400.021 207.261 399.006 199.86C397.991 192.458 398.991 187.458 398.991 183.458C398.991 179.458 402.342 143.11 402.342 143.11L409.991 91.4583Z" fill="#E6E6E6"/>
<path d="M448.3 72.0611C460.614 72.0611 470.597 62.0782 470.597 49.7635C470.597 37.4489 460.614 27.4659 448.3 27.4659C435.985 27.4659 426.002 37.4489 426.002 49.7635C426.002 62.0782 435.985 72.0611 448.3 72.0611Z" fill="#FFB6B6"/>
<path d="M424.936 36.269C426.893 37.8512 426.445 45.5458 428.627 44.2916C430.808 43.0374 431.262 40.7915 433.774 40.7679C435.822 40.881 437.754 41.7552 439.191 43.2191C439.459 43.4608 439.713 43.7141 439.96 43.9646C440.186 43.8854 440.409 43.8136 440.644 43.7547C442.406 43.3245 444.265 43.5864 445.84 44.4864C444.386 44.5902 443.001 45.1485 441.882 46.0822C442.361 46.6196 442.848 47.16 443.36 47.6594C447.63 51.8443 456.386 47.3877 462.274 46.3821C457.37 51.7361 458.337 54.725 459.556 61.8812L459.561 62.2721C459.812 60.6218 465.098 60.704 464.226 62.8938C463.132 65.0571 461.763 67.07 460.153 68.8824C467.354 63.8932 473.168 57.016 474.453 48.7086C474.717 46.9619 475.232 45.1798 474.734 43.4767C474.523 42.6157 474.032 41.8489 473.339 41.2961C472.645 40.7434 471.788 40.4359 470.902 40.4217C471.704 37.8734 471.801 35.1553 471.182 32.5564C470.563 29.9575 469.251 27.5749 467.386 25.662C465.521 23.7491 463.172 22.3774 460.59 21.6926C458.008 21.0078 455.288 21.0356 452.72 21.7731C450.378 22.6055 448.093 23.5917 445.881 24.7251C443.648 25.8628 441.12 26.2909 438.637 25.952C437.09 25.6324 435.523 24.8315 434.007 25.285C432.25 25.8119 431.495 27.6674 430.791 29.4587C432.112 29.9414 433.26 30.8073 434.088 31.9458C432.721 31.4415 431.23 31.3809 429.828 31.7727C429.802 31.7772 429.776 31.7841 429.752 31.7932C428.161 34.6438 428.069 35.3428 424.936 36.269Z" fill="#0E0E0E"/>
<path d="M432.289 80.5668C420.868 79.6474 410.44 88.3816 405.685 98.8063C400.931 109.231 400.62 121.057 400.389 132.512L399.671 168.121C399.565 173.39 399.459 178.66 399.196 183.924C399.061 189.046 398.417 194.142 397.273 199.136C394.945 208.301 389.823 216.468 384.775 224.465C397.698 228.371 410.84 231.509 424.132 233.864C430.771 212.392 437.485 190.304 435.853 167.889C434.989 156.028 431.799 144.448 430.587 132.617C428.869 115.862 431.145 98.9832 433.417 82.2941" fill="#0E0E0E"/>
<path d="M460.011 82.5696C471.323 84.3885 479.379 95.3493 481.522 106.605C483.665 117.86 481.159 129.422 478.663 140.604C476.076 152.191 473.49 163.778 470.904 175.365C469.755 180.509 468.607 185.653 467.612 190.829C466.645 195.856 470.694 202.305 470.74 207.424C470.826 216.88 468.989 224.668 471.993 233.634C458.513 234.36 445.002 234.288 431.53 233.418C430.181 210.985 428.904 187.934 435.812 166.548C439.467 155.231 445.316 144.739 449.304 133.535C454.951 117.667 456.748 100.731 458.504 83.9794" fill="#0E0E0E"/>
<path d="M467.553 244.221C466.713 242.757 466.477 241.023 466.896 239.388C467.315 237.752 468.356 236.345 469.796 235.465C470.092 235.291 470.401 235.142 470.722 235.019L469.279 185.903L484.906 181.925L478.947 239.147C479.354 240.515 479.298 241.979 478.786 243.311C478.274 244.644 477.336 245.769 476.117 246.512C475.42 246.928 474.647 247.202 473.843 247.32C473.04 247.437 472.221 247.395 471.434 247.196C470.646 246.997 469.906 246.645 469.255 246.16C468.603 245.674 468.054 245.066 467.638 244.368C467.609 244.319 467.581 244.27 467.553 244.221Z" fill="#FFB6B6"/>
<path d="M466.413 102.191C466.413 102.191 477.32 92.9673 486.498 111.411C495.677 129.854 490.548 171.988 489.255 174.237C487.963 176.486 487.175 173.353 487.883 179.347C488.458 184.222 485.037 183.613 486.264 184.653C489.5 187.396 480.437 187.708 485.092 190.126C489.747 192.543 468.914 192.995 468.914 192.995C468.914 192.995 466.394 191.196 468.144 184.41C469.127 180.598 471.588 179.204 468.963 177.44C466.338 175.676 471.674 170.224 471.678 169.027C471.682 167.831 463.357 141.664 463.357 141.664L466.413 102.191Z" fill="#0E0E0E"/>
<path d="M376.153 329.399C373.3 329.399 370.486 328.735 367.934 327.458C365.382 326.182 363.163 324.329 361.451 322.046L316.376 261.945C314.926 260.014 313.872 257.816 313.272 255.478C312.672 253.139 312.539 250.706 312.879 248.316C313.22 245.926 314.029 243.626 315.259 241.549C316.489 239.471 318.116 237.657 320.047 236.208C321.979 234.76 324.176 233.706 326.515 233.107C328.854 232.508 331.288 232.376 333.678 232.718C336.068 233.06 338.367 233.87 340.443 235.101C342.52 236.331 344.334 237.959 345.782 239.891L375.272 279.208L451.013 165.598C452.352 163.59 454.073 161.865 456.078 160.522C458.084 159.179 460.334 158.244 462.701 157.771C465.067 157.298 467.504 157.295 469.872 157.763C472.24 158.232 474.492 159.162 476.5 160.501C478.508 161.84 480.233 163.561 481.576 165.566C482.919 167.572 483.854 169.822 484.327 172.189C484.801 174.556 484.803 176.992 484.335 179.36C483.867 181.728 482.936 183.98 481.598 185.988L391.447 321.214C389.816 323.66 387.623 325.679 385.05 327.102C382.478 328.525 379.603 329.311 376.664 329.393C376.494 329.396 376.323 329.399 376.153 329.399Z" fill="#22C55E"/>
<path d="M410.512 235.69C411.432 234.274 411.763 232.556 411.435 230.9C411.107 229.244 410.146 227.781 408.756 226.823C408.471 226.633 408.17 226.467 407.857 226.326L412.011 177.365L396.629 172.53L399.416 229.994C398.933 231.337 398.909 232.802 399.346 234.161C399.784 235.519 400.659 236.695 401.834 237.504C402.508 237.957 403.264 238.274 404.06 238.436C404.856 238.598 405.676 238.601 406.473 238.446C407.27 238.29 408.029 237.98 408.706 237.531C409.383 237.083 409.965 236.505 410.419 235.832C410.451 235.785 410.482 235.737 410.512 235.69Z" fill="#FFB6B6"/>
<path d="M419.515 94.0408C419.515 94.0408 409.134 84.2279 398.95 102.136C388.766 120.044 391.559 162.397 392.725 164.714C393.891 167.031 394.851 163.946 393.813 169.892C392.969 174.728 396.419 174.308 395.136 175.279C391.753 177.839 400.785 178.652 396.004 180.808C391.223 182.964 411.999 184.568 411.999 184.568C411.999 184.568 414.614 182.91 413.242 176.038C412.471 172.178 410.091 170.65 412.809 169.034C415.527 167.418 410.501 161.679 410.563 160.484C410.626 159.289 420.383 133.622 420.383 133.622L419.515 94.0408Z" fill="#0E0E0E"/>
</g>
<defs>
<clipPath id="clip0_4_313">
<rect width="717.67" height="430.743" fill="white"/>
</clipPath>
</defs>
</svg>
