<svg width="4319" height="1080" viewBox="0 0 4319 1080" fill="none" xmlns="http://www.w3.org/2000/svg">
<rect y="101" width="878" height="878" rx="439" fill="#22C55E"/>
<path d="M385.111 757.151L369.144 752.361C363.822 750.232 356.104 747.837 345.992 745.176C331.089 741.983 318.848 736.394 309.268 728.411C300.22 719.895 295.696 709.783 295.696 698.073C295.696 684.768 299.954 674.123 308.469 666.139C316.985 658.156 328.162 654.164 342 654.164C348.387 654.164 355.572 655.495 363.556 658.156C371.539 660.285 376.862 661.615 379.523 662.148L401.078 669.333C410.658 671.462 418.642 672.526 425.029 672.526C436.738 672.526 449.778 671.462 464.148 669.333L486.502 662.148C497.679 657.357 503.267 650.438 503.267 641.39C503.267 620.633 490.227 602.537 464.148 587.103C451.374 580.184 433.012 571.402 409.062 560.757L389.901 551.975C357.967 537.073 333.218 520.573 315.655 502.478C298.623 484.382 290.107 460.431 290.107 430.626C290.107 405.611 296.228 384.056 308.469 365.96C314.324 355.315 323.372 344.67 335.613 334.026C343.597 327.639 356.104 319.123 373.136 308.478C380.587 304.22 384.313 298.1 384.313 290.116C384.313 284.262 383.781 276.012 382.716 265.367C381.652 254.723 381.119 247.005 381.119 242.215C381.119 195.911 396.022 172.759 425.827 172.759C438.601 172.759 447.915 176.751 453.769 184.734C459.624 192.718 463.349 204.693 464.946 220.66C466.011 229.708 466.543 237.957 466.543 245.409C466.543 252.328 466.809 257.916 467.341 262.174C468.406 270.69 469.47 276.544 470.535 279.738C473.196 287.721 477.454 292.511 483.308 294.108C506.194 301.559 526.685 313.268 544.781 329.235C562.877 345.202 571.925 362.234 571.925 380.33C571.925 392.039 567.933 402.151 559.95 410.667C551.966 418.651 542.12 422.642 530.411 422.642C524.556 422.642 519.5 421.312 515.242 418.651C511.517 415.99 505.662 411.199 497.679 404.28C495.017 400.555 492.09 397.627 488.897 395.499C486.236 392.837 482.776 390.176 478.518 387.515C470.535 381.128 460.954 377.935 449.778 377.935C440.197 377.935 429.287 380.33 417.045 385.12C405.336 389.378 395.224 395.499 386.708 403.482C378.724 410.933 374.733 419.715 374.733 429.828C374.733 436.747 377.66 443.133 383.514 448.988L389.901 453.778L394.691 456.972C408.529 465.487 430.883 476.664 461.753 490.502C483.042 500.082 498.743 507.534 508.855 512.856C525.887 522.436 540.257 534.145 551.966 547.984C564.208 561.822 574.586 580.45 583.102 603.868C586.295 613.448 587.892 622.762 587.892 631.81V657.358C587.892 678.115 578.844 697.009 560.748 714.04C542.652 730.54 521.097 743.047 496.082 751.563C491.824 753.16 488.364 755.288 485.703 757.95C483.574 760.611 482.51 764.869 482.51 770.723C482.51 782.965 482.244 792.279 481.712 798.666L480.913 827.406L481.712 847.365C482.244 851.623 482.51 857.743 482.51 865.727C482.51 877.968 478.784 887.815 471.333 895.266C464.414 903.249 455.1 907.241 443.391 907.241C422.634 907.241 409.328 897.395 403.473 877.702C400.28 869.186 398.151 859.872 397.086 849.76C396.554 839.648 396.288 826.874 396.288 811.439L397.086 791.48C397.619 787.222 397.885 781.102 397.885 773.118C397.885 769.393 397.086 766.465 395.49 764.336C394.425 762.208 393.095 760.877 391.498 760.345L385.111 757.151Z" fill="white"/>
<path d="M1201.24 762V357.228H1292.2L1295.99 469.412L1287.66 467.896C1293.72 428.985 1305.09 400.939 1321.77 383.758C1338.95 366.071 1362.19 357.228 1391.5 357.228H1428.64V440.608H1390.74C1370.03 440.608 1352.84 443.64 1339.2 449.704C1325.56 455.768 1315.2 465.369 1308.12 478.508C1301.55 491.141 1298.27 507.817 1298.27 528.536V762H1201.24ZM1571.18 771.096C1528.74 771.096 1494.63 761.495 1468.85 742.292C1443.08 722.584 1430.2 695.296 1430.2 660.428C1430.2 625.56 1441.06 598.272 1462.79 578.564C1484.52 558.856 1517.62 544.707 1562.09 536.116L1696.25 509.586C1696.25 480.782 1689.68 459.305 1676.55 445.156C1663.41 430.501 1643.95 423.174 1618.18 423.174C1594.93 423.174 1576.49 428.733 1562.85 439.85C1549.71 450.462 1540.61 465.875 1535.56 486.088L1437.02 481.54C1445.1 438.587 1464.81 405.74 1496.14 383C1527.47 359.755 1568.15 348.132 1618.18 348.132C1675.79 348.132 1719.25 362.787 1748.56 392.096C1778.37 420.9 1793.28 462.337 1793.28 516.408V663.46C1793.28 674.072 1795.05 681.399 1798.58 685.442C1802.63 689.485 1808.44 691.506 1816.02 691.506H1828.9V762C1825.87 763.011 1820.82 763.769 1813.74 764.274C1807.17 764.779 1800.35 765.032 1793.28 765.032C1776.6 765.032 1761.69 762.505 1748.56 757.452C1735.42 751.893 1725.31 742.545 1718.24 729.406C1711.16 715.762 1707.62 697.317 1707.62 674.072L1715.96 680.136C1711.92 697.823 1703.08 713.741 1689.43 727.89C1676.29 741.534 1659.62 752.146 1639.4 759.726C1619.19 767.306 1596.45 771.096 1571.18 771.096ZM1590.89 700.602C1612.62 700.602 1631.32 696.307 1646.98 687.716C1662.65 679.125 1674.78 667.25 1683.37 652.09C1691.96 636.93 1696.25 618.991 1696.25 598.272V575.532L1591.65 596.756C1569.92 601.304 1554.26 608.126 1544.65 617.222C1535.56 625.813 1531.01 637.183 1531.01 651.332C1531.01 666.997 1536.06 679.125 1546.17 687.716C1556.78 696.307 1571.69 700.602 1590.89 700.602ZM2033.01 771.096C1992.58 771.096 1957.46 762.505 1927.65 745.324C1897.83 727.637 1874.59 702.876 1857.91 671.04C1841.74 639.204 1833.65 602.062 1833.65 559.614C1833.65 517.166 1841.74 480.277 1857.91 448.946C1874.59 417.11 1897.83 392.349 1927.65 374.662C1957.46 356.975 1992.58 348.132 2033.01 348.132C2067.37 348.132 2097.94 354.196 2124.73 366.324C2151.51 378.452 2173.24 395.886 2189.91 418.626C2207.09 440.861 2217.71 468.149 2221.75 500.49L2121.69 505.796C2117.65 480.024 2107.54 460.569 2091.37 447.43C2075.71 433.786 2056.25 426.964 2033.01 426.964C2001.68 426.964 1977.42 438.839 1960.24 462.59C1943.06 485.835 1934.47 518.177 1934.47 559.614C1934.47 601.557 1943.06 634.151 1960.24 657.396C1977.42 680.641 2001.68 692.264 2033.01 692.264C2056.76 692.264 2076.47 685.442 2092.13 671.798C2108.3 658.154 2118.16 636.93 2121.69 608.126L2221.75 612.674C2217.71 645.015 2207.35 673.061 2190.67 696.812C2174 720.563 2152.27 739.007 2125.48 752.146C2098.7 764.779 2067.88 771.096 2033.01 771.096ZM2259.13 762V223.82H2356.15V449.704H2344.02C2348.07 426.459 2356.15 407.509 2368.28 392.854C2380.41 377.694 2395.32 366.577 2413 359.502C2430.69 351.922 2450.14 348.132 2471.37 348.132C2501.18 348.132 2526.2 354.701 2546.41 367.84C2567.13 380.473 2582.54 398.413 2592.65 421.658C2603.26 444.903 2608.57 471.686 2608.57 502.006V762H2511.54V525.504C2511.54 492.657 2505.98 468.149 2494.87 451.978C2483.75 435.302 2466.31 426.964 2442.56 426.964C2416.29 426.964 2395.32 435.555 2379.65 452.736C2363.98 469.917 2356.15 494.931 2356.15 527.778V762H2259.13ZM2792.66 771.096C2750.21 771.096 2716.1 761.495 2690.33 742.292C2664.56 722.584 2651.67 695.296 2651.67 660.428C2651.67 625.56 2662.54 598.272 2684.27 578.564C2705.99 558.856 2739.09 544.707 2783.56 536.116L2917.73 509.586C2917.73 480.782 2911.16 459.305 2898.02 445.156C2884.88 430.501 2865.43 423.174 2839.66 423.174C2816.41 423.174 2797.97 428.733 2784.32 439.85C2771.18 450.462 2762.09 465.875 2757.03 486.088L2658.49 481.54C2666.58 438.587 2686.29 405.74 2717.62 383C2748.95 359.755 2789.63 348.132 2839.66 348.132C2897.26 348.132 2940.72 362.787 2970.03 392.096C2999.85 420.9 3014.75 462.337 3014.75 516.408V663.46C3014.75 674.072 3016.52 681.399 3020.06 685.442C3024.1 689.485 3029.91 691.506 3037.49 691.506H3050.38V762C3047.35 763.011 3042.29 763.769 3035.22 764.274C3028.65 764.779 3021.83 765.032 3014.75 765.032C2998.08 765.032 2983.17 762.505 2970.03 757.452C2956.89 751.893 2946.79 742.545 2939.71 729.406C2932.64 715.762 2929.1 697.317 2929.1 674.072L2937.44 680.136C2933.39 697.823 2924.55 713.741 2910.91 727.89C2897.77 741.534 2881.09 752.146 2860.88 759.726C2840.67 767.306 2817.93 771.096 2792.66 771.096ZM2812.37 700.602C2834.1 700.602 2852.79 696.307 2868.46 687.716C2884.12 679.125 2896.25 667.25 2904.84 652.09C2913.43 636.93 2917.73 618.991 2917.73 598.272V575.532L2813.13 596.756C2791.4 601.304 2775.73 608.126 2766.13 617.222C2757.03 625.813 2752.49 637.183 2752.49 651.332C2752.49 666.997 2757.54 679.125 2767.65 687.716C2778.26 696.307 2793.16 700.602 2812.37 700.602ZM3222.65 771.096C3188.28 771.096 3158.47 762.505 3133.2 745.324C3108.44 728.143 3089.24 703.634 3075.59 671.798C3061.95 639.962 3055.13 602.567 3055.13 559.614C3055.13 516.661 3061.95 479.266 3075.59 447.43C3089.24 415.594 3108.69 391.085 3133.96 373.904C3159.23 356.723 3188.79 348.132 3222.65 348.132C3250.95 348.132 3275.71 353.943 3296.93 365.566C3318.66 377.189 3335.08 393.612 3346.2 414.836V223.82H3443.22V762H3350.75L3348.47 702.118C3337.36 723.847 3320.68 740.776 3298.45 752.904C3276.21 765.032 3250.95 771.096 3222.65 771.096ZM3252.21 692.264C3272.42 692.264 3289.35 687.211 3302.99 677.104C3317.14 666.997 3327.76 652.09 3334.83 632.382C3342.41 612.169 3346.2 587.913 3346.2 559.614C3346.2 530.81 3342.41 506.554 3334.83 486.846C3327.76 467.138 3317.14 452.231 3302.99 442.124C3289.35 432.017 3272.42 426.964 3252.21 426.964C3222.9 426.964 3199.4 438.839 3181.71 462.59C3164.53 485.835 3155.94 518.177 3155.94 559.614C3155.94 600.041 3164.53 632.382 3181.71 656.638C3199.4 680.389 3222.9 692.264 3252.21 692.264ZM3629.18 771.096C3586.74 771.096 3552.63 761.495 3526.85 742.292C3501.08 722.584 3488.2 695.296 3488.2 660.428C3488.2 625.56 3499.06 598.272 3520.79 578.564C3542.52 558.856 3575.62 544.707 3620.09 536.116L3754.25 509.586C3754.25 480.782 3747.68 459.305 3734.55 445.156C3721.41 430.501 3701.95 423.174 3676.18 423.174C3652.93 423.174 3634.49 428.733 3620.85 439.85C3607.71 450.462 3598.61 465.875 3593.56 486.088L3495.02 481.54C3503.1 438.587 3522.81 405.74 3554.14 383C3585.47 359.755 3626.15 348.132 3676.18 348.132C3733.79 348.132 3777.25 362.787 3806.56 392.096C3836.37 420.9 3851.28 462.337 3851.28 516.408V663.46C3851.28 674.072 3853.05 681.399 3856.58 685.442C3860.63 689.485 3866.44 691.506 3874.02 691.506H3886.9V762C3883.87 763.011 3878.82 763.769 3871.74 764.274C3865.17 764.779 3858.35 765.032 3851.28 765.032C3834.6 765.032 3819.69 762.505 3806.56 757.452C3793.42 751.893 3783.31 742.545 3776.24 729.406C3769.16 715.762 3765.62 697.317 3765.62 674.072L3773.96 680.136C3769.92 697.823 3761.08 713.741 3747.43 727.89C3734.29 741.534 3717.62 752.146 3697.4 759.726C3677.19 767.306 3654.45 771.096 3629.18 771.096ZM3648.89 700.602C3670.62 700.602 3689.32 696.307 3704.98 687.716C3720.65 679.125 3732.78 667.25 3741.37 652.09C3749.96 636.93 3754.25 618.991 3754.25 598.272V575.532L3649.65 596.756C3627.92 601.304 3612.26 608.126 3602.65 617.222C3593.56 625.813 3589.01 637.183 3589.01 651.332C3589.01 666.997 3594.06 679.125 3604.17 687.716C3614.78 696.307 3629.69 700.602 3648.89 700.602ZM3721.66 304.168C3711.05 304.168 3701.45 302.652 3692.86 299.62C3684.27 296.083 3675.17 290.524 3665.57 282.944C3659 277.385 3653.44 273.343 3648.89 270.816C3644.34 268.289 3639.04 267.026 3632.97 267.026C3625.39 267.026 3618.82 270.058 3613.27 276.122C3607.71 281.681 3604.17 292.798 3602.65 309.474H3551.87C3552.37 277.133 3559.7 252.119 3573.85 234.432C3588.5 216.745 3607.96 207.902 3632.22 207.902C3644.34 207.902 3654.96 209.671 3664.05 213.208C3673.65 216.745 3683 222.304 3692.1 229.884C3699.17 235.443 3704.98 239.485 3709.53 242.012C3714.59 244.033 3719.64 245.044 3724.69 245.044C3732.78 245.044 3739.35 242.012 3744.4 235.948C3749.45 229.884 3752.49 218.261 3753.5 201.08H3805.04C3804.03 233.421 3796.2 258.688 3781.54 276.88C3767.39 295.072 3747.43 304.168 3721.66 304.168ZM4091.01 771.096C4051.09 771.096 4015.96 762.505 3985.64 745.324C3955.83 727.637 3932.58 702.876 3915.91 671.04C3899.74 639.204 3891.65 602.062 3891.65 559.614C3891.65 516.661 3899.74 479.519 3915.91 448.188C3932.58 416.352 3955.83 391.843 3985.64 374.662C4015.96 356.975 4051.09 348.132 4091.01 348.132C4130.93 348.132 4165.8 356.975 4195.61 374.662C4225.43 391.843 4248.42 416.352 4264.59 448.188C4281.26 479.519 4289.6 516.661 4289.6 559.614C4289.6 602.062 4281.26 639.204 4264.59 671.04C4248.42 702.876 4225.43 727.637 4195.61 745.324C4165.8 762.505 4130.93 771.096 4091.01 771.096ZM4091.01 692.264C4122.34 692.264 4146.34 680.641 4163.02 657.396C4180.2 634.151 4188.79 601.557 4188.79 559.614C4188.79 518.177 4180.2 485.835 4163.02 462.59C4146.34 438.839 4122.34 426.964 4091.01 426.964C4059.68 426.964 4035.42 438.839 4018.24 462.59C4001.06 485.835 3992.47 518.177 3992.47 559.614C3992.47 601.557 4001.06 634.151 4018.24 657.396C4035.42 680.641 4059.68 692.264 4091.01 692.264Z" fill="#0e0e0e"/>
</svg>
